<?xml version="1.0" ?><!DOCTYPE svg  PUBLIC '-//W3C//DTD SVG 1.1//EN'  'http://www.w3.org/Graphics/SVG/1.1/DTD/svg11.dtd'><svg height="100%" style="fill-rule:evenodd;clip-rule:evenodd;stroke-linejoin:round;stroke-miterlimit:2;" version="1.1" viewBox="0 0 32 32" width="100%" xml:space="preserve" xmlns="http://www.w3.org/2000/svg" xmlns:serif="http://www.serif.com/" xmlns:xlink="http://www.w3.org/1999/xlink"><path d="M3,8l0,16c-0,1.326 0.527,2.598 1.464,3.536c0.938,0.937 2.21,1.464 3.536,1.464c4.439,-0 11.561,0 16,0c1.326,0 2.598,-0.527 3.536,-1.464c0.937,-0.938 1.464,-2.21 1.464,-3.536l-0,-16c0,-1.326 -0.527,-2.598 -1.464,-3.536c-0.938,-0.937 -2.21,-1.464 -3.536,-1.464c-4.439,-0 -11.561,-0 -16,-0c-1.326,-0 -2.598,0.527 -3.536,1.464c-0.937,0.938 -1.464,2.21 -1.464,3.536Zm24,10.745l0,4.64c0,0.977 -0.328,1.917 -0.927,2.608c-0.552,0.636 -1.293,1.007 -2.073,1.007l-16,-0l-0,-0c-0.78,0 -1.521,-0.371 -2.073,-1.007c-0.599,-0.691 -0.927,-1.631 -0.927,-2.608l0,-1.178c0,-0 2.512,-3.727 2.512,-3.727c0.558,-0.828 1.49,-1.324 2.488,-1.324c0.998,0 1.93,0.496 2.488,1.323c-0,0 1.516,2.25 1.516,2.25c0.186,0.276 0.497,0.441 0.829,0.441c0.333,0 0.644,-0.165 0.83,-0.441l3.849,-5.711c0.558,-0.827 1.49,-1.323 2.488,-1.323c0.998,-0 1.93,0.496 2.488,1.323l2.512,3.727Zm0,-3.578l0,-7.167c0,-0.796 -0.316,-1.559 -0.879,-2.121c-0.562,-0.563 -1.325,-0.879 -2.121,-0.879l-16,-0c-0.796,-0 -1.559,0.316 -2.121,0.879c-0.563,0.562 -0.879,1.325 -0.879,2.121l-0,10.628l0.854,-1.266c0.929,-1.379 2.483,-2.206 4.146,-2.206c1.663,0 3.217,0.827 4.146,2.206l0.687,1.019c0,0 3.021,-4.481 3.021,-4.481c0.929,-1.379 2.483,-2.205 4.146,-2.205c1.663,-0 3.217,0.826 4.146,2.205l0.854,1.267Z"/><path d="M14,7c-1.656,0 -3,1.344 -3,3c0,1.656 1.344,3 3,3c1.656,0 3,-1.344 3,-3c0,-1.656 -1.344,-3 -3,-3Zm0,2c0.552,0 1,0.448 1,1c0,0.552 -0.448,1 -1,1c-0.552,0 -1,-0.448 -1,-1c0,-0.552 0.448,-1 1,-1Z"/></svg>